<svg xmlns="http://www.w3.org/2000/svg" viewBox="0 0 1088 768" role="img" aria-label="Matrice di posizionamento competitivo">
  <rect width="1088" height="768" fill="#dddddd"/>
  <text x="544" y="36" font-size="52" text-anchor="middle" font-family="Arial, sans-serif" fill="#333" font-weight="700">Matrice di posizionamento competitivo</text>
  <line x1="90" y1="80" x2="90" y2="690" stroke="#333" stroke-width="2"/>
  <line x1="90" y1="690" x2="1010" y2="690" stroke="#333" stroke-width="2"/>

  <g stroke="#888" stroke-dasharray="6,6" stroke-width="1">
    <line x1="90" y1="160" x2="1010" y2="160"/>
    <line x1="90" y1="240" x2="1010" y2="240"/>
    <line x1="90" y1="320" x2="1010" y2="320"/>
    <line x1="90" y1="400" x2="1010" y2="400"/>
    <line x1="90" y1="480" x2="1010" y2="480"/>
    <line x1="90" y1="560" x2="1010" y2="560"/>
    <line x1="130" y1="80" x2="130" y2="690"/>
    <line x1="240" y1="80" x2="240" y2="690"/>
    <line x1="350" y1="80" x2="350" y2="690"/>
    <line x1="460" y1="80" x2="460" y2="690"/>
    <line x1="570" y1="80" x2="570" y2="690"/>
    <line x1="680" y1="80" x2="680" y2="690"/>
    <line x1="790" y1="80" x2="790" y2="690"/>
    <line x1="900" y1="80" x2="900" y2="690"/>
  </g>

  <g font-family="Arial, sans-serif" font-size="22" fill="#222">
    <text x="70" y="565">2</text><text x="70" y="485">3</text><text x="70" y="405">4</text><text x="70" y="325">5</text><text x="70" y="245">6</text><text x="70" y="165">7</text><text x="70" y="85">8</text>
    <text x="125" y="720">2</text><text x="235" y="720">3</text><text x="345" y="720">4</text><text x="455" y="720">5</text><text x="565" y="720">6</text><text x="675" y="720">7</text><text x="785" y="720">8</text><text x="895" y="720">9</text>
  </g>

  <g stroke-width="4" fill="none" stroke="#1e40ff">
    <line x1="124" y1="480" x2="136" y2="492"/><line x1="136" y1="480" x2="124" y2="492"/>
    <line x1="234" y1="480" x2="246" y2="492"/><line x1="246" y1="480" x2="234" y2="492"/>
    <line x1="674" y1="560" x2="686" y2="572"/><line x1="686" y1="560" x2="674" y2="572"/>
    <line x1="784" y1="560" x2="796" y2="572"/><line x1="796" y1="560" x2="784" y2="572"/>
    <line x1="894" y1="480" x2="906" y2="492"/><line x1="906" y1="480" x2="894" y2="492"/>
  </g>

  <g fill="#333" font-size="38" font-family="Arial, sans-serif">
    <text x="142" y="472">ConfTool</text>
    <text x="252" y="472">Ex Ordo</text>
    <text x="692" y="552">Academia.edu</text>
    <text x="802" y="552">ResearchGate</text>
    <text x="912" y="472">LinkedIn</text>
  </g>

  <g stroke="#ff0000" stroke-width="5" fill="none">
    <line x1="344" y1="160" x2="364" y2="180"/><line x1="364" y1="160" x2="344" y2="180"/>
  </g>
  <text x="370" y="154" font-size="42" font-family="Arial, sans-serif" fill="#333">CoAuthor</text>

  <rect x="830" y="90" width="180" height="56" fill="none" stroke="#888" rx="6"/>
  <g stroke="#ff0000" stroke-width="5" fill="none"><line x1="850" y1="110" x2="868" y2="128"/><line x1="868" y1="110" x2="850" y2="128"/></g>
  <text x="895" y="128" font-size="38" font-family="Arial, sans-serif" fill="#333">CoAuthor</text>

  <text x="544" y="747" text-anchor="middle" font-size="40" font-family="Arial, sans-serif" fill="#222">Asse X: Focus su Visibilità (alto) ↔ Collaborazione (basso)</text>
  <text x="32" y="385" transform="rotate(-90 32,385)" text-anchor="middle" font-size="40" font-family="Arial, sans-serif" fill="#222">Asse Y: Esperienza frammentata (basso) ↔ Integrata (alto)</text>
</svg>
